# xmcd
#
# Track frame offsets:
#	150
#	21891
#	48966
#	79342
#	100145
#	113576
#	149593
#	174372
#	198303
#	223974
#	251704
#	271415
#	288091
#
# Disc length: 4163 seconds
#
# Revision: 0
# Processed by: cddbd v1.5.2PL0 Copyright (c) Steve Scherf et al.
# Submitted via: EasyCDDAExtractor 10.5.1.1
#
DISCID=bd10410d
DTITLE=Various Artist - Not In My Family
DYEAR=2006
DGENRE=Gospel
TTITLE0=Byron Cage - Lift Him Up
TTITLE1=Natalie Wilson and SOP - Free
TTITLE2=Kirk Franklin - Always
TTITLE3=The McClurkin Project - Healing Grace
TTITLE4=Percy Bady - Gone But Not Forgotten
TTITLE5=Walter Hawkins and The Love Centre Choir With Tramain Hawkins - It's Rig
TTITLE5=ht And Good
TTITLE6=Rev, Jackie McCullough - Where I Belong
TTITLE7=Dr Bobby Jones and New Life with The Nashville Super Choir - I Found It 
TTITLE8=Yolanda Adams - Still I Rise
TTITLE9=Kurt Carr Singers - Hold On Be Strong
TTITLE10=Jon Gibson - Gone With You
TTITLE11=Papa San - Step Pon Di Enemy
TTITLE12=New Direction - You Can Make It
EXTD=
EXTT0=
EXTT1=
EXTT2=
EXTT3=
EXTT4=
EXTT5=
EXTT6=
EXTT7=
EXTT8=
EXTT9=
EXTT10=
EXTT11=
EXTT12=
PLAYORDER=
